<svg xmlns="http://www.w3.org/2000/svg" xmlns:xlink="http://www.w3.org/1999/xlink" x="0px" y="0px" viewBox="0 0 1800 1800" style="enable-background:new 0 0 1800 1800;" xml:space="preserve"><style type="text/css">	.st0{opacity:0.5;fill:#5E5B55;}	.st1{fill:#F0EFEB;}	.st2{fill:#779B82;}	.st3{fill:#739199;}	.st4{fill:#7FA2B0;}	.st5{fill:#6D8A91;}	.st6{fill:#797972;}	.st7{fill:#6C967A;}	.st8{fill:#83AA92;}	.st9{fill:#6C9478;}	.st10{opacity:0.81;fill:#759A7F;}	.st11{fill:#CFD1D0;}	.st12{opacity:0.81;fill:#B9D0D9;}	.st13{opacity:0.5;fill:#B9D0D9;}	.st14{fill:#B9D0D9;}	.st15{opacity:0.81;fill:#9EBAC9;}	.st16{fill:#8CAABB;}	.st17{fill:#8CBD9E;}</style><g id="Layer_3"></g><g id="Layer_4">	<g>					<ellipse transform="matrix(0.7071 -0.7071 0.7071 0.7071 397.4379 1280.6014)" class="st0" cx="1744.5" cy="160.6" rx="21.3" ry="12.2"></ellipse>					<ellipse transform="matrix(0.7071 -0.7071 0.7071 0.7071 391.2116 1265.5699)" class="st0" cx="1723.3" cy="160.6" rx="12.2" ry="21.3"></ellipse>	</g>	<g>					<ellipse transform="matrix(0.7071 -0.7071 0.7071 0.7071 -117.9975 845.3604)" class="st0" cx="961.4" cy="565.1" rx="21.3" ry="12.2"></ellipse>					<ellipse transform="matrix(0.7071 -0.7071 0.7071 0.7071 -124.2238 830.3289)" class="st0" cx="940.2" cy="565.1" rx="12.2" ry="21.3"></ellipse>	</g>	<g>					<ellipse transform="matrix(0.7071 -0.7071 0.7071 0.7071 -54.6312 395.3811)" class="st0" cx="450" cy="263.6" rx="21.3" ry="12.2"></ellipse>					<ellipse transform="matrix(0.7071 -0.7071 0.7071 0.7071 -60.8574 380.3497)" class="st0" cx="428.7" cy="263.6" rx="12.2" ry="21.3"></ellipse>	</g></g><g id="Layer_5">	<path class="st1" d="M519.9,775.1v-44.2h-44.2v44.2h-44.2v-44.2h-44.2v44.2h-44.2v-44.2h-44.2v44.2v154.5l21,37l24.2,42.6  L520,1319.3v-159.6v-60.1v-90.4v-42.6L519.9,775.1L519.9,775.1z M416.2,847.5v60.1h-18.6v-60.1H416.2z"></path></g><g id="Layer_6">	<polygon class="st2" points="866.6,966.6 757.8,775.1 687.5,651.3 647.6,581 567,439 567,439 520,439 520,775.1 520,966.6   520,1009.2 567,1009.2 647.6,1009.2 890.7,1009.2 890.7,1009.2  "></polygon></g><g id="Layer_7">	<path class="st3" d="M1444.4,966.1h-322.8l-24.5,43.1l-51.4,90.4c11.5,27.5,18.9,59.7,18.9,97.3c0,1.6,0,3.2,0,4.8  c0,0.5,0,0.9,0,1.4c0,1.2,0,2.3,0,3.5c0,0.5,0,0.9,0,1.4c0,1.5-0.1,3.1-0.1,4.6c0,0,0,0.1,0,0.1c0,1.5-0.1,2.9-0.1,4.4  c0,0.4,0,0.8,0,1.2c0,1.1-0.1,2.3-0.1,3.4c0,0.4,0,0.7-0.1,1.1c-0.1,2.9-0.3,5.8-0.5,8.6c0,0.3,0,0.6-0.1,1  c-0.1,1.2-0.2,2.3-0.2,3.4c0,0.3,0,0.5-0.1,0.8c-0.2,2.8-0.5,5.5-0.7,8.2c0,0.2,0,0.4-0.1,0.6c-0.1,1.2-0.2,2.4-0.4,3.6  c0,0.1,0,0.2,0,0.4c-0.3,2.7-0.6,5.4-1,7.9c0,0.1,0,0.1,0,0.2c-0.5,3.9-1.1,7.7-1.7,11.4h44.1h187.1l147.4-259.7l24.5-43.1H1444.4z  "></path></g><g id="Layer_8">	<path class="st4" d="M1103.4,966.1H986.8h-71.1c0,0,31,13,64.8,43.1c23.7,21.1,48.8,50.8,65.3,90.4l51.4-90.4l24.5-43.1H1103.4z"></path></g><g id="Layer_9">	<path class="st5" d="M1103.4,1268.8h-44.1c-1.4,8.6-3.1,16.5-5,23.9c0,0,0,0,0,0c-0.3,1.1-0.5,2.1-0.8,3.1  c-19.7,73.1-58.4,90.7-58.4,182c0,136.2,79.2,171.9,79.2,171.9l90.1-158.6l126.2-222.3H1103.4z"></path></g><g id="Layer_10">	<rect x="520" y="1099.6" class="st6" width="18.6" height="60.1"></rect></g><g id="Layer_11">	<rect x="397.6" y="847.5" class="st6" width="18.6" height="60.1"></rect></g><g id="Layer_12">	<polygon class="st7" points="211,775.1 211,775.1 298.7,929.6 298.7,929.6 298.7,775.1  "></polygon></g><g id="Layer_13">	<polygon class="st8" points="298.7,439 298.7,730.9 342.9,730.9 342.9,775.1 387.2,775.1 387.2,730.9 431.4,730.9 431.4,775.1   475.6,775.1 475.6,730.9 519.9,730.9 519.9,775.1 520,775.1 520,439  "></polygon></g><g id="Layer_14">	<path class="st9" d="M950.8,1208.3c0-3.6-0.1-7.1-0.2-10.6c-0.2-5.2-0.4-10.2-0.8-15.1c-0.1-1.6-0.2-3.3-0.4-4.9  c-0.3-3.2-0.5-6.4-0.9-9.4c-1.1-10.8-2.6-20.9-4.4-30.3c-0.5-2.5-1-5-1.5-7.5c-0.3-1.2-0.5-2.4-0.8-3.6c-1.1-4.8-2.2-9.4-3.4-13.8  c-2.1-7.7-4.4-14.9-6.8-21.6c-1.4-3.8-2.7-7.5-4.2-11c-10.2-25.5-21.4-43.1-28.3-56.3c0,0,0,0,0-0.1l-8.3-14.7l0-0.1l0,0.1  l-243.3,428.5v106l60,105.6c0-36.8,2-67.6,14.3-101.3c0.8-2.3,1.7-4.7,2.7-7c0.5-1.2,1-2.4,1.5-3.5c0.5-1.2,1-2.5,1.6-3.7  c0.2-0.4,0.3-0.7,0.5-1.1c1.6-3.6,3.4-7.3,5.2-11.1c8.1-16.2,18.8-33.5,32.8-52.7c57.8-79.4,184.7-134,184.7-255.7  C950.8,1211.9,950.8,1210.1,950.8,1208.3z"></path></g><g id="Layer_15">	<polygon class="st10" points="890.9,1009.5 890.9,1009.4 890.8,1009.3 890.7,1009.2 647.6,1009.2 647.6,1438.1 890.9,1009.5  "></polygon></g><g id="Layer_16">	<polygon class="st11" points="567,1009.2 520,1009.2 520,1099.6 538.6,1099.6 538.6,1159.7 520,1159.7 520,1319.3 617.5,1491.1   631.6,1515.9 647.6,1544.1 647.6,1438.1 647.6,1009.2  "></polygon></g><g id="Layer_17">	<polygon class="st12" points="1433.2,417.2 1397.7,362.4 1397.7,362.4 1324.3,248.6 1239.4,395.8 1393.2,487.6  "></polygon></g><g id="Layer_18">	<polygon class="st13" points="1520.5,263.5 1486.9,205.8 1397.7,362.4 1433.2,417.2  "></polygon></g><g id="Layer_19">	<polygon class="st14" points="1520.5,263.6 1433.5,417.7 1393.2,487.6 1647.9,639.5 1693,560.2  "></polygon></g><g id="Layer_20">	<polygon class="st13" points="1693,560.2 1761.9,439 1588.8,143.2 1520.5,263.5 1520.5,263.6  "></polygon></g><g id="Layer_21">	<polygon class="st15" points="1103.4,966.1 1121.5,966.1 1393.2,487.6 1239.4,395.8 915.6,966.1 986.8,966.1  "></polygon></g><g id="Layer_22">	<polygon class="st16" points="1393.2,487.6 1121.5,966.1 1121.5,966.1 1444.4,966.1 1462.4,966.1 1647.9,639.5  "></polygon></g><g id="Layer_23">	<polygon class="st17" points="20.1,439 211,775.1 298.7,775.1 298.7,730.9 298.7,439  "></polygon></g><g id="Layer_24"></g></svg>